<svg width="24" height="25" viewBox="0 0 24 25" fill="none" xmlns="http://www.w3.org/2000/svg">
<g clip-path="url(#clip0_53_15381)">
<path d="M3.06543 7.71118L11.9998 12.6012L20.9342 7.71118" stroke="#00A6E3" stroke-width="2" stroke-linecap="round" stroke-linejoin="round"/>
<path d="M12 12.6021V22.2471" stroke="#00A6E3" stroke-width="1.5" stroke-linecap="round" stroke-linejoin="round"/>
<path d="M20.61 17.6413L12.36 22.1581C12.2496 22.2185 12.1258 22.2502 12 22.2502C11.8742 22.2502 11.7504 22.2185 11.64 22.1581L3.39 17.6413C3.2722 17.5768 3.17386 17.4819 3.10526 17.3665C3.03666 17.251 3.0003 17.1193 3 16.985V8.01688C3.0003 7.8826 3.03666 7.75086 3.10526 7.63543C3.17386 7.51999 3.2722 7.42509 3.39 7.36063L11.64 2.84376C11.7504 2.78336 11.8742 2.75171 12 2.75171C12.1258 2.75171 12.2496 2.78336 12.36 2.84376L20.61 7.36063C20.7278 7.42509 20.8261 7.51999 20.8947 7.63543C20.9633 7.75086 20.9997 7.8826 21 8.01688V16.9831C21 17.1177 20.9638 17.2499 20.8952 17.3657C20.8266 17.4815 20.7281 17.5766 20.61 17.6413Z" stroke="#00A6E3" stroke-width="2" stroke-linecap="round" stroke-linejoin="round"/>
<path d="M7.64648 5.02905L16.5002 9.87499V14.75" stroke="#00A6E3" stroke-width="2" stroke-linecap="round" stroke-linejoin="round"/>
</g>
<defs>
<clipPath id="clip0_53_15381">
<rect width="24" height="24" fill="white" transform="translate(0 0.5)"/>
</clipPath>
</defs>
</svg>
